<svg width="101" height="100" viewBox="0 0 101 100" fill="none" xmlns="http://www.w3.org/2000/svg">
<g clip-path="url(#clip0_30_5333)">
<path d="M90.1999 19.6558C106.521 41.4922 101.044 73.2864 79.2949 89.6839C57.547 106.072 26.6867 101.664 10.366 79.8277C-5.95548 57.9914 -1.5654 27.0054 20.1825 10.6178C41.9305 -5.76896 73.8685 -2.18053 90.1999 19.6558Z" fill="#F4F6FA"/>
<path d="M19.3086 29.874H73.535V69.117H19.3086V29.874Z" fill="#E63946"/>
<path fill-rule="evenodd" clip-rule="evenodd" d="M28.3561 40.3839H52.2677L56.7181 35.9326H82.0983C82.3172 35.9326 82.5334 35.982 82.7306 36.0771C82.9278 36.1722 83.1011 36.3106 83.2375 36.4819C83.3738 36.6532 83.4698 36.8531 83.5183 37.0666C83.5667 37.2802 83.5664 37.5019 83.5173 37.7153L76.5454 67.988C76.4717 68.3089 76.2913 68.5953 76.0336 68.8004C75.776 69.0054 75.4565 69.117 75.1272 69.1169H21.5156L26.9264 41.5591C26.9916 41.228 27.1698 40.9299 27.4304 40.7156C27.691 40.5012 28.0187 40.384 28.3561 40.3839Z" fill="#EEF0F4"/>
<path fill-rule="evenodd" clip-rule="evenodd" d="M83.4695 36.1389C83.2529 35.8661 82.9773 35.646 82.6634 35.4951C82.3495 35.3442 82.0054 35.2665 81.6571 35.2678H74.5439V31.7289C74.543 31.0965 74.2918 30.49 73.8452 30.0422C73.3986 29.5944 72.7929 29.3415 72.1604 29.3389H44.9687V31.0579H72.1604C72.2485 31.0578 72.3358 31.0751 72.4172 31.1088C72.4987 31.1424 72.5726 31.1919 72.6349 31.2542C72.6972 31.3166 72.7465 31.3906 72.7801 31.4721C72.8137 31.5535 72.8309 31.6408 72.8307 31.7289V35.2678H56.2786C56.0505 35.2678 55.829 35.3612 55.672 35.5182L51.4695 39.7207H27.9158C26.81 39.7207 25.8538 40.5058 25.6472 41.5827L20.3745 68.4529H20.1679C20.0091 68.452 19.8572 68.3887 19.7448 68.2765C19.6325 68.1644 19.569 68.0125 19.5679 67.8537V31.657C19.5689 31.4985 19.6324 31.3467 19.7446 31.2346C19.8567 31.1224 20.0085 31.059 20.167 31.0579L44.9687 31.0513V29.3389L20.167 29.3455C19.5543 29.3466 18.967 29.5905 18.5337 30.0237C18.1005 30.457 17.8566 31.0443 17.8555 31.657V67.8537C17.8563 68.4666 18.1001 69.0541 18.5334 69.4876C18.9667 69.921 19.5542 70.165 20.167 70.1661H74.686C75.2092 70.1674 75.7173 69.9909 76.1269 69.6655C76.5366 69.3401 76.8235 68.8851 76.9406 68.3752L83.9117 38.1009C84.0687 37.4083 83.9117 36.6951 83.4695 36.1389ZM82.2422 37.7174L75.2712 67.9901C75.24 68.122 75.1653 68.2395 75.0592 68.3238C74.953 68.4081 74.8216 68.4541 74.686 68.4546H22.1158L27.3241 41.919C27.3514 41.7822 27.4253 41.6591 27.5332 41.5707C27.6411 41.4822 27.7763 41.4339 27.9158 41.4339H51.8249C52.0538 41.4339 52.2679 41.3413 52.4323 41.1843L56.6348 36.9818H81.6571C81.7474 36.9821 81.8364 37.0026 81.9177 37.0419C81.999 37.0812 82.0703 37.1383 82.1265 37.2089C82.1827 37.2796 82.2223 37.362 82.2423 37.45C82.2624 37.538 82.2623 37.6294 82.2422 37.7174Z" fill="#313133"/>
</g>
<defs>
<clipPath id="clip0_30_5333">
<rect width="100" height="99.1736" fill="white" transform="translate(0.5 0.413086)"/>
</clipPath>
</defs>
</svg>
