<!DOCTYPE svg PUBLIC "-//W3C//DTD SVG 1.1//EN" "http://www.w3.org/Graphics/SVG/1.1/DTD/svg11.dtd">
<!-- Uploaded to: SVG Repo, www.svgrepo.com, Transformed by: SVG Repo Mixer Tools -->
<svg width="800px" height="800px" viewBox="-3.12 -3.12 30.24 30.24" fill="none" xmlns="http://www.w3.org/2000/svg" stroke="#ffffff">
<g id="SVGRepo_bgCarrier" stroke-width="0">
<rect x="-3.12" y="-3.12" width="30.24" height="30.24" rx="15.12" fill="#A1C5FF" strokewidth="0"/>
</g>
<g id="SVGRepo_tracerCarrier" stroke-linecap="round" stroke-linejoin="round"/>
<g id="SVGRepo_iconCarrier"> <path d="M12 3.99997H6C4.89543 3.99997 4 4.8954 4 5.99997V18C4 19.1045 4.89543 20 6 20H18C19.1046 20 20 19.1045 20 18V12M18.4142 8.41417L19.5 7.32842C20.281 6.54737 20.281 5.28104 19.5 4.5C18.7189 3.71895 17.4526 3.71895 16.6715 4.50001L15.5858 5.58575M18.4142 8.41417L12.3779 14.4505C12.0987 14.7297 11.7431 14.9201 11.356 14.9975L8.41422 15.5858L9.00257 12.6441C9.08001 12.2569 9.27032 11.9013 9.54951 11.6221L15.5858 5.58575M18.4142 8.41417L15.5858 5.58575" stroke="#ffffff" stroke-width="0.9600000000000002" stroke-linecap="round" stroke-linejoin="round"/> </g>
</svg>